<svg xmlns="http://www.w3.org/2000/svg" viewBox="0 0 76 24"><path fill="#000" d="M30.6152 7.32129C30.8575 7.29705 31.1245 7.32083 31.3184 7.39355C31.5848 7.46631 31.7303 7.6368 31.7061 7.78223C31.6818 8.07289 31.657 8.26672 31.6328 8.5332C31.6328 8.67866 31.8756 8.70261 31.9482 8.62988C32.5782 7.92706 33.8377 7.32138 34.9277 7.32129C38.8765 7.32129 39.9188 11.1509 39.9189 12.7754C39.9189 14.7633 38.3437 18.8359 33.6436 18.8359C32.9654 18.8359 32.5294 18.812 31.9238 18.4727C31.8027 18.4242 31.6328 18.4246 31.6328 18.667V21.4062C31.6328 22.5698 31.8757 22.8363 33.3535 22.8848C33.8862 22.9091 34.1767 23.1516 34.1768 23.4424C34.1768 23.7575 33.8379 23.9999 33.2324 24C32.4571 23.9758 31.536 23.9512 30.7607 23.9512C29.9855 23.9512 28.9676 23.9513 28.1924 23.9756C27.5869 23.9997 27.3203 23.7331 27.3203 23.418C27.3204 23.1515 27.466 22.9333 27.9502 22.8848C28.8223 22.7878 29.1621 22.2789 29.1621 21.4062V10.7637C29.1621 9.98791 29.1859 9.43061 28.0957 9.28516C27.7081 9.23666 27.4414 9.04239 27.4414 8.82422C27.5384 8.07281 30.0092 7.44261 30.6152 7.32129ZM8.77051 7.20703C8.84319 7.08582 9.01265 7.03762 9.13379 7.11035L9.4248 7.25586C9.54568 7.32871 9.5941 7.49824 9.52148 7.64355L9.37598 7.91016C9.27928 8.07973 9.32749 8.27392 9.47266 8.34668C11.4109 9.58305 12.041 11.716 12.041 13.1221C12.041 14.8675 10.5876 18.9402 6.1543 18.9404C5.28218 18.9404 4.53087 18.8187 3.85254 18.6006C3.73156 18.5522 3.5621 18.6008 3.48926 18.7217L3.29492 19.1104C3.22214 19.2555 3.05248 19.3041 2.90723 19.2314L2.64062 19.0859C2.49548 19.0132 2.44716 18.8436 2.51953 18.6982L2.68945 18.3828C2.76206 18.2375 2.71362 18.068 2.59277 17.9951C0.654567 16.7345 0 14.5763 0 13.2188C0.000149182 11.4732 1.33275 7.40065 5.79004 7.40039C6.71069 7.40039 7.48667 7.52205 8.16504 7.74023C8.31035 7.78856 8.48009 7.71587 8.55273 7.59473L8.77051 7.20703ZM71.4365 5.21191C71.6787 5.21198 72.0895 5.28494 72.0898 5.59961V7.70898C72.0898 7.8302 72.0907 7.95117 72.333 7.95117H75.0459C75.5547 7.95117 75.7725 8.16986 75.7725 8.43652C75.7239 8.84848 75.4093 8.94531 75.0459 8.94531H72.333C72.0907 8.94531 72.0898 9.04285 72.0898 9.16406V15.2969C72.0898 15.6605 72.0177 17.2849 73.0107 17.2852C73.5195 17.2852 74.2949 16.8482 74.8037 16.5088C74.9733 16.3876 75.2156 16.2667 75.4336 16.2666C75.5304 16.2666 75.6031 16.2912 75.6758 16.3154C75.9423 16.4366 76.0877 16.752 75.9424 16.8975C75.1429 17.649 73.7378 18.8358 72.3086 18.8359C70.0798 18.8359 69.6436 17.3335 69.6436 16.4365V9.16406C69.6436 9.04285 69.6186 8.94531 69.4248 8.94531H68.8193C68.3108 8.94524 68.0206 8.72731 68.0205 8.43652C68.0205 8.26689 68.0685 8.12138 68.3105 8.02441C69.8851 7.49114 70.5399 6.49729 70.7822 5.57617C70.8549 5.26102 71.17 5.21191 71.4365 5.21191ZM43.043 7.29688C43.2852 7.27263 43.5523 7.29739 43.7461 7.37012C44.0123 7.44291 44.158 7.61244 44.1338 7.75781C44.1096 8.14556 44.0848 8.33955 44.0605 8.70312C44.0364 8.94536 44.2788 8.94568 44.3516 8.87305C44.9573 8.09729 46.169 7.29688 47.1865 7.29688C48.7364 7.29704 49.0517 8.09679 49.0518 8.6543C49.0518 9.13909 48.5913 9.96369 47.6709 9.96387C46.726 9.96387 46.7013 9.13965 45.9502 9.13965C44.7147 9.13979 44.0361 10.2064 44.0361 11.0791V15.8545C44.0361 16.9939 44.3276 17.2847 45.7812 17.3574C46.2654 17.3575 46.483 17.5517 46.5557 17.7939C46.6768 18.1576 46.3623 18.4482 45.7324 18.4482C45.1752 18.4482 44.4 18.4004 43.8428 18.4004C42.8496 18.4246 41.5655 18.3996 40.5723 18.4238C39.9183 18.4481 39.7726 18.1578 39.7725 17.9639C39.7725 17.5033 40.1603 17.3573 40.4268 17.333C41.2988 17.236 41.5654 16.7271 41.5654 15.8545V10.6455C41.5601 9.98441 41.4804 9.40926 40.5479 9.26074C40.1844 9.21226 39.8691 9.01799 39.8691 8.7998C39.8697 8.09691 42.5097 7.39393 43.043 7.29688ZM26.7441 0C28.0279 0 28.4158 0.605798 28.416 1.1875C28.416 1.59959 27.9076 2.23037 26.9629 2.23047C26.1392 2.23047 26.0418 1.69727 25.3877 1.69727C24.3461 1.6975 24.0801 3.63645 24.0801 4.14551V7.6123C24.0801 7.78192 24.1766 7.92772 24.5156 7.92773H26.502C27.0107 7.92773 27.2051 8.14546 27.2051 8.41211C27.2051 8.67878 27.0107 8.89746 26.502 8.89746H24.5156C24.1765 8.89748 24.0801 9.04243 24.0801 9.23633V16.0488C24.0801 16.897 24.3462 17.2368 25.6055 17.3096C26.1142 17.3581 26.333 17.5761 26.333 17.8428C26.3328 18.1577 26.042 18.4245 25.4609 18.4004H23.0137C21.7781 18.4004 20.7845 18.4238 20.5664 18.4238C19.961 18.4238 19.6701 18.182 19.6699 17.8428C19.6699 17.5762 19.8155 17.3579 20.2998 17.2852C21.3173 17.164 21.6328 16.7758 21.6328 16.0244V9.23633C21.6328 9.04245 21.463 8.89752 21.124 8.89746H17.1504C16.7872 8.89748 16.6417 8.99393 16.6416 9.33301V16.0488C16.6417 16.897 16.8841 17.236 18.1436 17.333C18.6523 17.3573 18.8711 17.5761 18.8711 17.8428C18.8709 18.1578 18.5793 18.4481 17.998 18.4238C17.5619 18.3996 16.7384 18.4004 15.5518 18.4004C14.3162 18.4004 13.3224 18.4238 13.0801 18.4238C12.4747 18.4238 12.2082 18.182 12.208 17.8428C12.208 17.5761 12.3292 17.3579 12.8379 17.2852C13.8312 17.164 14.1709 16.7758 14.1709 16.0244V9.30957C14.1709 9.13987 13.9763 8.89746 13.5645 8.89746H13.2744C12.7414 8.89746 12.4746 8.6786 12.4746 8.3877C12.4746 8.21805 12.5231 8.02387 12.8379 7.95117C13.7343 7.70875 14.1709 7.32091 14.1709 6.71484C14.171 5.84199 14.5098 4.02405 15.2607 2.61816C15.6726 1.91514 17.5381 8.69289e-05 19.3066 0C20.5662 0 20.9539 0.605798 20.9541 1.1875C20.9541 1.59956 20.4456 2.23029 19.501 2.23047C18.6773 2.23047 18.6042 1.69736 17.9502 1.69727C16.8842 1.69727 16.6416 3.63642 16.6416 4.14551V7.49121C16.6417 7.7819 16.7872 7.9277 17.1504 7.92773H20.252C21.4388 7.92762 21.6328 7.29661 21.6328 6.71484C21.6329 5.842 21.9475 4.02404 22.7227 2.61816C23.1103 1.9152 24.9999 0.000355155 26.7441 0ZM52.5439 7.29688C52.7861 7.24851 53.0524 7.27302 53.2461 7.3457C53.5126 7.44267 53.658 7.58813 53.6338 7.75781C53.5611 8.55769 53.5127 9.23641 53.5127 10.0605V15.8301C53.5127 16.5815 53.7548 17.164 54.6025 17.3096C55.0629 17.3823 55.209 17.5761 55.209 17.8428C55.2088 18.1577 54.9177 18.4479 54.3125 18.4238C53.7068 18.3996 52.8822 18.4004 52.3008 18.4004C51.7195 18.4004 50.9689 18.3996 50.3877 18.4238C49.758 18.4481 49.4182 18.182 49.418 17.8428C49.418 17.6004 49.5151 17.3823 49.9512 17.3096C50.8718 17.1641 51.0654 16.4846 51.0654 15.8301V10.4424C51.0598 9.83046 50.9771 9.38798 50.0234 9.26074C49.636 9.21218 49.3701 9.01791 49.3701 8.7998C49.3706 8.07261 52.011 7.39384 52.5439 7.29688ZM63.5449 7.27246C66.3309 7.27255 66.5488 9.13992 66.5488 11.1035V15.8301C66.5488 16.5331 66.5731 17.1398 67.6631 17.3096C68.1234 17.3823 68.2207 17.6248 68.2207 17.8672C68.2204 18.1821 67.9539 18.448 67.3486 18.4238C66.743 18.3996 65.9192 18.4004 65.3135 18.4004C64.732 18.4004 63.811 18.3996 63.2295 18.4238C62.6001 18.448 62.4308 18.1821 62.4307 17.8672C62.4307 17.6248 62.6482 17.3582 63.084 17.3096C63.9077 17.2126 64.1016 16.5816 64.1016 15.8301V12.5576C64.1016 11.3456 64.2958 8.97007 62.4307 8.96973C61.8007 8.96973 60.4436 9.74562 59.8379 10.2305C59.7168 10.3517 59.6445 10.497 59.6445 10.6182V15.8301C59.6445 16.5816 59.8622 17.1884 60.7344 17.3096C61.1946 17.3581 61.3154 17.6004 61.3154 17.8428C61.3152 18.1578 61.0244 18.4481 60.4189 18.4238C59.8133 18.3996 59.0139 18.4004 58.4326 18.4004C57.8512 18.4004 57.0756 18.4238 56.4941 18.4238C55.7676 18.4237 55.5742 18.1815 55.5742 17.8906C55.5744 17.5272 55.8164 17.358 56.0586 17.3096C57.0034 17.1641 57.1973 16.4846 57.1973 15.8301V10.7148C57.1973 9.96349 57.2211 9.40618 56.1553 9.26074C55.7437 9.21228 55.4528 8.97001 55.4766 8.75195C55.5008 8.6065 55.6226 8.43681 55.8164 8.33984C56.5674 7.87928 57.4876 7.49083 58.6504 7.29688C58.8927 7.24839 59.1355 7.27298 59.3535 7.3457C59.6199 7.44269 59.7412 7.6124 59.7412 7.75781C59.6928 8.12131 59.668 8.36366 59.668 8.67871C59.6437 8.87263 59.8619 8.87251 59.9346 8.7998C60.9764 7.83011 62.0913 7.27246 63.5449 7.27246ZM8.33398 10.3096C8.28525 10.2131 8.11584 10.2129 8.06738 10.3096L4.55469 16.7588C4.50639 16.9041 4.5311 17.0496 4.62793 17.1465C5.1366 17.5826 5.79044 17.8494 6.56543 17.8252C9.27871 17.7525 9.37617 14.262 9.2793 13.292C9.23084 12.6617 8.9639 11.4005 8.33398 10.3096ZM33.9102 8.99414C32.699 8.99424 31.6331 9.69688 31.6328 10.4482V15.5879C31.6328 16.3636 31.9964 17.5996 33.9346 17.5996C36.8661 17.5996 37.4238 15.0788 37.4238 13.2363C37.4238 11.7333 36.454 8.99414 33.9102 8.99414ZM5.47559 8.49219C2.68977 8.56491 2.66466 12.0788 2.7373 13.0732C2.80998 13.6792 3.07707 14.9157 3.68262 15.958C3.7553 16.1035 3.94959 16.0792 3.99805 15.958L7.48633 9.55859C7.55893 9.43751 7.53487 9.26792 7.41406 9.1709C6.9053 8.73455 6.25084 8.46796 5.47559 8.49219ZM51.7441 1.13965C52.8584 1.13972 53.7547 2.03623 53.7549 3.12695C53.7549 4.24206 52.8585 5.13958 51.7441 5.13965C50.6297 5.13965 49.7334 4.24211 49.7334 3.12695C49.7336 2.03619 50.6298 1.13965 51.7441 1.13965Z"/></svg>
