<svg width="268" height="126" viewBox="0 0 268 126" fill="none" xmlns="http://www.w3.org/2000/svg">
<path d="M152.728 0C154.924 9.61449e-06 157.709 0.518918 159.909 2.66504C161.593 4.30693 162.321 6.30235 162.578 8.13086C164.36 8.3905 166.293 9.08839 167.909 10.665C169.999 12.7038 170.62 15.2873 170.689 17.4199L170.696 17.8398V24.2734C180.692 21.2264 191.091 20 203.5 20C205.25 20 206.935 20.0078 208.574 20.0264C209.526 19.1827 210.379 18.4187 211.058 17.7979C211.086 17.7723 211.113 17.7489 211.137 17.7275L219.177 10.4863L219.199 10.4658L219.223 10.4453C222.441 7.60547 226.396 6 230.872 6H232.536C234.741 6.00005 237.496 6.55579 239.658 8.71777C241.285 10.3444 242 12.307 242.256 14.1182C244.068 14.3735 246.031 15.0905 247.658 16.7178C249.679 18.739 250.296 21.2786 250.368 23.4023L251.234 23.5703C255.395 24.3924 258.368 27.6672 259.081 31.54L259.234 31.5703C264.739 32.6581 268.171 38.039 267.029 43.4189L263.709 59.0713C263.114 61.876 261.41 64.1264 259.171 65.5068C259.482 66.3532 259.647 67.2007 259.728 67.9902C261.393 68.1377 263.241 68.6837 264.854 70.1055C267.551 72.4812 267.874 75.7615 267.778 77.8721L267.774 77.9463L266.878 93.4346L266.877 93.4336C266.753 95.9953 265.957 98.526 264.197 100.616C262.429 102.717 260.103 103.88 257.798 104.429L257.797 104.428C253.619 105.434 248.163 106.128 242.968 106.128C231.89 106.128 222.813 103.27 216.704 96.2148C215.855 95.2346 215.088 94.1954 214.392 93.1045C213.434 92.4984 212.518 91.8327 211.646 91.1045C211.804 91.5725 211.938 91.9715 212.047 92.293C212.149 92.5972 212.23 92.8323 212.283 92.9912C212.31 93.0706 212.33 93.1314 212.344 93.1719C212.351 93.1921 212.356 93.2076 212.359 93.2178L212.364 93.2324L212.372 93.2549C213.036 95.2459 213.662 98.6718 211.467 101.717C209.409 104.571 206.252 105.178 204.144 105.242L203.736 105.248H181.976C179.554 105.248 177.075 104.632 174.919 103.112C172.79 101.612 171.371 99.5063 170.569 97.1807C170.305 98.9918 169.573 100.96 167.909 102.583C165.709 104.729 162.924 105.248 160.728 105.248H138.84C137.143 105.248 135.121 104.918 133.294 103.781C126.707 105.761 121.571 106.2 116.802 106.2C102.867 106.2 91.8055 102.208 84.2051 94.8232C84.1978 94.8162 84.1908 94.8088 84.1836 94.8018C84.1436 94.8521 84.1057 94.9041 84.0654 94.9541C78.1433 102.31 69.5075 105.768 59.3115 105.768C55.8988 105.768 52.6839 105.274 49.6963 104.358V115.256C49.6963 117.462 49.1389 120.257 46.9092 122.432C44.7086 124.578 41.9234 125.096 39.7275 125.096H17.8398C15.6353 125.096 12.8798 124.541 10.7178 122.379C9.09098 120.752 8.37366 118.789 8.11816 116.978C6.30702 116.722 4.3444 116.005 2.71777 114.379C0.555669 112.217 0 109.461 0 107.256V29.6885C0 27.4837 0.555483 24.7285 2.7168 22.5664C4.87848 20.404 7.63402 19.8477 9.83984 19.8477H31.7275C33.5143 19.8477 35.6616 20.1905 37.5762 21.4346C41.6677 19.5444 46.2912 18.5684 51.3115 18.5684C61.4858 18.5684 70.1233 21.9795 76.0547 29.3047C76.233 29.5249 76.408 29.748 76.5801 29.9736C84.1918 22.8327 95.16 19.0001 108.93 19C112.582 19 116.441 19.259 121 20.2285V9.83984C121 7.63503 121.556 4.87976 123.718 2.71777C125.88 0.55581 128.635 4.49021e-05 130.84 0H152.728Z" fill="black"/>
<path d="M232.536 12C235.096 12 236.376 13.28 236.376 15.8398V27.2227C240.559 27.7353 244.997 28.4547 250.071 29.457C252.238 29.8853 253.619 32.0128 253.16 34.1738L249.84 49.8262C249.381 51.9872 247.256 53.363 245.088 52.9375C241.928 52.3173 239.071 51.8252 236.376 51.4355V57.8242C236.376 65.5037 240.984 66.5282 244.056 66.5283C245.336 66.5283 247.64 66.2716 249.688 66.0156C252.632 65.6318 253.912 66.7841 253.784 69.5996L252.888 85.0879C252.76 88.1598 251.096 89.9517 248.408 90.5918C244.696 91.4878 239.704 92.1279 234.968 92.1279C214.744 92.1279 206.68 81.7596 206.68 60.5117V50.0811C206.072 50.1022 205.476 50.1267 204.89 50.1562C202.533 50.2751 200.5 48.4312 200.5 46.0713V37.7578C200.5 36.0077 201.264 34.3452 202.589 33.2021C205.855 30.3859 212.106 24.9731 215.109 22.2236C215.12 22.2135 215.132 22.2041 215.144 22.1943L223.192 14.9443C225.368 13.0244 227.928 12 230.872 12H232.536Z" fill="#FFCA46"/>
<path d="M152.728 6C155.415 6.00002 156.696 7.27997 156.696 9.83984V36.5576C160.758 34.44 164.828 32.6166 169.073 31.1201C179.384 27.4854 190.059 26 203.5 26C204.456 26 205.391 26.0028 206.309 26.0078C204.196 27.849 202.113 29.6518 200.63 30.9307C198.646 32.642 197.5 35.1328 197.5 37.7578V46.0713C197.5 47.5803 197.968 48.952 198.754 50.0781C194.185 50.2348 190.237 50.6273 186.667 51.2529C186.703 51.3579 186.742 51.4628 186.776 51.5684C191.5 65.8884 198.68 87.1523 198.68 87.1523C199.576 89.8401 198.552 91.2479 195.736 91.248H173.976C171.16 91.2479 169.112 89.84 168.216 87.1523L159.872 62.375C158.845 63.0063 157.788 63.669 156.696 64.3652V87.4082C156.696 89.968 155.415 91.248 152.728 91.248H130.84C130.396 91.248 129.99 91.208 129.623 91.1309C130.388 90.8051 131.17 90.3929 131.843 89.832C133.384 88.5473 134.095 86.7978 134.196 84.7021L135.092 69.9824L135.094 69.959L135.095 69.9355C135.166 68.3561 135.007 66.1759 133.393 64.6465C131.728 63.069 129.502 63.0873 127.786 63.3799C127.524 63.4197 127.262 63.4574 127 63.4951V53.666C127.291 53.7133 127.582 53.762 127.872 53.8125C129.672 54.1255 131.926 54.0871 133.579 52.4336C135.126 50.8869 135.295 48.7337 135.223 47.1367L135.222 47.1133L135.22 47.0898L134.324 32.3691C134.223 30.2733 133.512 28.5238 131.97 27.2393C131.007 26.4369 129.824 25.9327 128.781 25.5605L127.798 25.2266C127.529 25.1356 127.263 25.047 127 24.9609V9.83984C127 7.28 128.28 6.00005 130.84 6H152.728Z" fill="#21DC66"/>
<path d="M108.93 25C113.922 25 119.298 25.5123 126.85 28.0723C129.538 28.9682 131.202 29.608 131.33 32.5518L132.226 47.2725C132.353 50.0882 131.33 51.3684 128.386 50.8564C122.498 49.8325 116.482 49.4483 113.282 49.4482C104.578 49.4482 100.866 52.2641 100.866 58.5361C100.866 63.7841 103.17 67.624 113.154 67.624C116.354 67.624 122.37 67.2397 128.258 66.3438C131.202 65.8318 132.226 66.9839 132.098 69.7998L131.202 84.5195C131.074 87.4635 129.41 88.104 126.722 89C119.17 91.6879 113.794 92.2002 108.802 92.2002C93.742 92.2001 83.3801 87.1484 77.3984 79.1074C80.047 73.3977 81.3203 66.3198 81.3203 58.1035L81.3135 57.0439C81.2115 49.5412 80.0176 43.0317 77.6494 37.6895C83.68 29.8723 93.998 25.0001 108.93 25Z" fill="#58A7FF"/>
<path d="M51.3115 24.5684C68.8474 24.5684 78.3202 36.0878 78.3203 58.1035C78.3203 80.1195 68.8475 91.7676 51.3115 91.7676C45.1679 91.7675 39.9201 89.8482 35.6963 86.6484V107.256C35.6963 109.816 34.4155 111.096 31.7275 111.096H9.83984C7.27995 111.096 6 109.816 6 107.256V29.6885C6 27.1285 7.27995 25.8477 9.83984 25.8477H31.7275C34.4154 25.8477 35.6961 27.1278 35.6963 29.5596C39.7921 26.3598 45.0399 24.5685 51.3115 24.5684ZM43 47C36.9817 47 35 51.4889 35 59C35 66.5111 36.9817 71 43 71C49.0183 71 51 66.5111 51 59C51 51.4889 49.0183 47 43 47Z" fill="#FF5D5B"/>
</svg>
