<svg xmlns="http://www.w3.org/2000/svg" width="320" height="320" viewBox="0 0 320 320">
  <rect width="320" height="320" fill="#fcfbf6" />
  <path transform="translate(81.250 260.870) scale(0.140000 -0.14)" fill="#c2502b" d="M932 1340L796 1368L912 1464L931 1464L997 997L965 991L772 1317L833 1242Q768 1298 696.5 1328Q625 1358 546 1358Q417 1358 356.5 1299Q296 1240 296 1144Q296 1078 325 1033Q354 988 405 957.5Q456 927 520.5 903.5Q585 880 655 855Q724 832 794 800Q864 768 921 721Q978 674 1012.5 602.5Q1047 531 1047 425Q1047 288 976.5 187Q906 86 785.5 31.5Q665 -23 517 -23Q413 -23 332 -9Q251 5 164 40L78 421L118 421L379 26L209 139Q292 91 359 66Q426 41 501 41Q618 41 698 74.5Q778 108 819.5 171Q861 234 861 324Q861 406 825 460Q789 514 730 549.5Q671 585 601.5 610.5Q532 636 463 662Q393 689 332 718.5Q271 748 223.5 790Q176 832 149 892Q122 952 122 1036Q122 1156 180 1243Q238 1330 344 1378Q450 1426 594 1426Q689 1426 769 1405.5Q849 1385 932 1340Z" />
</svg>
